<svg xmlns="http://www.w3.org/2000/svg" viewBox="0 0 51 51"><defs><style>.a{fill:#293d60;}</style></defs><path class="a" d="M28.46,38.31A12.12,12.12,0,0,0,28,35.52h.69a2.07,2.07,0,0,0,2.1-2.1,9.68,9.68,0,0,0-.66-2.86H31a2.09,2.09,0,0,0,2.19-2.19,9.23,9.23,0,0,0-.48-2.67h7a4.28,4.28,0,0,0,2.07-.29q.37-.29.37-1.47v-.57a2.82,2.82,0,0,0-.64-2.19q-.64-.53-4.48-.53H21.63q2.64-2.86,3.46-4,2.2-3,.67-5.53Q25,9.9,24,10.5a14.49,14.49,0,0,0-2.68,2.41q-1.69,1.81-2.81,3l-6.57,6.64-1.39.12V35.52l3.78,4.32a1.87,1.87,0,0,0,1.41.64H26.3A2.11,2.11,0,0,0,28.46,38.31Z"/></svg>