<svg xmlns="http://www.w3.org/2000/svg" viewBox="0 0 182.5 51"><defs><style>.a{fill:#293d60;}</style></defs><path class="a" d="M32.38,40c-2.92,0-5.32.08-5.32.08a2.83,2.83,0,0,0,1.28-2.52A28.53,28.53,0,0,0,27.22,32l-.44-1.68H18.61L18.17,32A29.28,29.28,0,0,0,17,37.54a2.83,2.83,0,0,0,1.28,2.52S16.45,40,13.77,40s-4.32.08-4.32.08c1.48-1.44,2.2-3.92,3.8-9.49L18,13.89a6,6,0,0,0,.24-1.48,1.13,1.13,0,0,0-.28-.84H29.74a1.49,1.49,0,0,0-.24.84,6,6,0,0,0,.2,1.48l4.36,16.69c1.48,5.6,2.16,8,3.64,9.49C37.7,40.07,35.58,40,32.38,40Zm-9-23.49c-.44-1.72-.6-2.64-.64-2.92,0,.2-.16,1-.64,2.92l-2.44,9.77h6.16Z"/><path class="a" d="M52.71,40.47c-4.28,0-6-2.08-6-2.08l-6.48,2.16a95.81,95.81,0,0,0,.36-11V19.41c0-6.92-.36-8-1-9.21l-.36-.68,8.41-1s-.12,4.08-.12,7.88v1.28a26.26,26.26,0,0,1-.28,4c.92-3.2,2.8-5.12,6.84-5.12,2.44,0,8.64.64,8.64,11.49C62.68,37.63,57.92,40.47,52.71,40.47ZM50.87,20.89a4.19,4.19,0,0,0-3.4,1.28V35.66a4.12,4.12,0,0,0,3,.92c3.68,0,5-3,5-8.08C55.43,24.58,54.55,20.89,50.87,20.89Z"/><path class="a" d="M77.09,40.51c-7.48,0-11.41-4.44-11.41-11.61S69.2,16.53,77.41,16.53c7.48,0,11.41,4.44,11.41,11.65C88.81,35.22,85.29,40.51,77.09,40.51Zm.12-19.89c-3.16,0-4.28,2.44-4.28,8.08s1.16,7.76,4.36,7.76,4.28-2.44,4.28-8.08S80.41,20.62,77.21,20.62Z"/><path class="a" d="M107.22,40.31l.2-5.56c-.92,4.24-3.52,5.72-7.08,5.72-3.12,0-5-1-6.08-2.84-1-1.68-1.08-3.52-1.08-8.21V27.58c0-7.24-.2-7.92-.88-9.21l-.36-.68,8.37-1s-.24,3.36-.24,8.49v2.64c0,4.64.16,6.08.68,6.92.36.68,1.08,1.4,2.88,1.4,3,0,3.52-1.76,3.52-1.76v-6.8c0-7.24-.2-7.92-.88-9.21l-.36-.68,8.33-1s-.2,4.4-.2,8.49v4.24c0,6.92.36,8,1,9.21l.36.68Z"/><path class="a" d="M126.79,40.43c-3.08,0-4.72-1.08-5.64-2.32S120,34.9,120,32c0-7.4.12-11,.12-11h-2.6a30.39,30.39,0,0,0,3.4-4.08A53.56,53.56,0,0,0,124,12.25h3v4.88h2.24c3.28,0,3.92-.44,3.92-.44s0,.68,0,2.4,0,2.36,0,2.36-.6-.4-3.92-.4H127V31.94a6.83,6.83,0,0,0,.44,3.2,2.71,2.71,0,0,0,2.72,1.4,4.45,4.45,0,0,0,3.24-1.16C133.4,37.5,131.92,40.43,126.79,40.43Z"/><path class="a" d="M147,28.49a12.12,12.12,0,0,0,2.79-.43v.69a2.07,2.07,0,0,0,2.1,2.1,9.68,9.68,0,0,0,2.86-.66V31a2.09,2.09,0,0,0,2.19,2.19,9.23,9.23,0,0,0,2.67-.48v7a4.28,4.28,0,0,0,.29,2.07q.29.37,1.47.37h.57a2.82,2.82,0,0,0,2.19-.64q.53-.64.53-4.48V21.65q2.86,2.64,4,3.46,3,2.2,5.53.67,1.25-.76.65-1.75a14.49,14.49,0,0,0-2.41-2.68q-1.81-1.69-3-2.81L162.75,12l-.12-1.39H149.74l-4.32,3.78a1.87,1.87,0,0,0-.64,1.41V26.32A2.11,2.11,0,0,0,147,28.49Z"/></svg>