<svg xmlns="http://www.w3.org/2000/svg" viewBox="0 0 51 51"><defs><style>.a{fill:#293d60;}</style></defs><path class="a" d="M24.27,12.48a12.12,12.12,0,0,0,.43,2.79H24a2.07,2.07,0,0,0-2.1,2.1,9.68,9.68,0,0,0,.66,2.86h-.84a2.09,2.09,0,0,0-2.19,2.19A9.23,9.23,0,0,0,20,25.08H13a4.28,4.28,0,0,0-2.07.29q-.37.29-.37,1.47v.57a2.82,2.82,0,0,0,.64,2.19q.64.53,4.48.53H31.11q-2.64,2.86-3.46,4-2.2,3-.67,5.53.76,1.25,1.75.65a14.49,14.49,0,0,0,2.68-2.41q1.69-1.81,2.81-3l6.57-6.64,1.39-.12V15.27l-3.78-4.32A1.87,1.87,0,0,0,37,10.31H26.44A2.11,2.11,0,0,0,24.27,12.48Z"/></svg>