<svg xmlns="http://www.w3.org/2000/svg" viewBox="0 0 51 171.5"><defs><style>.a{fill:#293d60;}</style></defs><path class="a" d="M21,122.92l19.09,5s-.08,1.4-.08,4.56.08,4.6.08,4.6L21,141.33a16.61,16.61,0,0,1-2.8.44c.2,0,1.24.16,2.84.48l19.09,4S40,147.82,40,150.9s.08,4.76.08,4.76L21,160.47c-5.64,1.44-8,2.24-9.49,3.76,0,0,.08-1.68.08-5.24,0-3.84-.08-5.68-.08-5.68a2.83,2.83,0,0,0,2.52,1.28,45.17,45.17,0,0,0,6.68-1.12l13.61-2.88c1-.2,2.08-.36,2.36-.4a16.4,16.4,0,0,1-2.32-.44L11.55,145s.08-1.4.08-3.88-.08-4-.08-4l22.49-5c1.08-.24,2.72-.52,2.72-.52s-1.56-.24-2.72-.48l-13.29-2.84a40.32,40.32,0,0,0-6.68-1.12,2.83,2.83,0,0,0-2.52,1.28s.08-1.64.08-4.76-.08-4.52-.08-4.52C13,120.68,15.39,121.48,21,122.92Z"/><path class="a" d="M40.57,108.36c0,7.48-4.44,11.41-11.61,11.41S16.59,116.24,16.59,108c0-7.48,4.44-11.41,11.65-11.41C35.28,96.63,40.57,100.15,40.57,108.36Zm-19.89-.12c0,3.16,2.44,4.28,8.08,4.28s7.76-1.16,7.76-4.36-2.44-4.28-8.08-4.28S20.67,105,20.67,108.24Z"/><path class="a" d="M22.15,81.46c0,2.92,1.64,3.6,1.64,3.6h5.44c8.77,0,9-.44,10.17-1.08l.72-.44S40,85.1,40,88.5s.08,4.8.08,4.8l-.68-.36c-1.16-.64-1.48-1-10.21-1h-1.6c-6.92,0-8,.36-9.21,1l-.68.36-1-8.08,6.76.2c-6.12-.88-6.92-3.92-6.92-5.72,0-2.08.72-2.76.72-2.76s1,.08,3.4.08c2.68,0,3.72-.08,3.72-.08A5.23,5.23,0,0,0,22.15,81.46Z"/><path class="a" d="M40.08,55.21v4.32l-11.17,7.4c8.33,0,9-.2,10.53-1l.68-.36S40,67,40,70.33s.08,4.84.08,4.84l-.68-.36c-1.24-.68-1.76-1-10.21-1H19.71c-7,0-8.17.32-9.45,1l-.68.36-1-8.37s4.08.12,7.88.12h12l-5.16-4.12c-2.48-2-3.52-2.76-4.68-2.76a1.91,1.91,0,0,0-1.6.84s.08-1.32.08-5c0-4.08-.08-5.64-.08-5.64.6,1,2.2,3.12,6.44,6.88l3.64,3.28,6.12-4.28c5.24-3.64,6.28-4.76,6.88-5.88C40.13,50.2,40.08,51.28,40.08,55.21Z"/><path class="a" d="M14.35,25.66a12.12,12.12,0,0,0,2.79-.43v.69a2.07,2.07,0,0,0,2.1,2.1,9.68,9.68,0,0,0,2.86-.66v.84a2.09,2.09,0,0,0,2.19,2.19A9.23,9.23,0,0,0,27,29.92v7A4.28,4.28,0,0,0,27.24,39q.29.37,1.47.37h.57a2.82,2.82,0,0,0,2.19-.64q.53-.64.53-4.48V18.83q2.86,2.64,4,3.46,3,2.2,5.53.67,1.25-.76.65-1.75a14.49,14.49,0,0,0-2.41-2.68q-1.81-1.69-3-2.81L30.14,9.14,30,7.75H17.14l-4.32,3.78a1.87,1.87,0,0,0-.64,1.41V23.5A2.11,2.11,0,0,0,14.35,25.66Z"/></svg>