<svg xmlns="http://www.w3.org/2000/svg" viewBox="0 0 343.5 51"><defs><style>.a{fill:#293d60;}</style></defs><path class="a" d="M32.78,38.77l-.08,1.52H18.13c-2.16,0-3.08,0-3.08,0l.36-.68c.8-1.48,1-1.8,1-13.81,0-11.65-.17-11.81-1-13.41L15,11.77s1.36.08,5,.08,4.84-.08,4.84-.08l-.4.72c-.88,1.52-1.08,2.32-1.07,11.41V36.25h2.68c5,0,5.6-1.16,7.08-3.33C33.21,32.93,33,34.53,32.78,38.77Z"/><path class="a" d="M49.11,40.6l.2-4.8c-1.08,4.36-4.16,4.93-6.64,4.93-5.6,0-7-3.88-7-7,0-7,6-7.37,9.52-7.37a27.86,27.86,0,0,1,3.84.24V25.51a5.16,5.16,0,0,0-.8-3.44c-.64-.72-1.8-1.2-4.08-1.2a7.73,7.73,0,0,0-6.24,2.69s.12-1.08.12-2.8A23.64,23.64,0,0,0,37.85,18s2.48-1.2,8.2-1.21c5,0,7.17,1.24,8.17,2.52,1.44,1.72,1.48,4,1.49,6.68,0,2.44,0,3.52,0,7.2,0,2.92.24,4.36,1,5.68l.36.68ZM49,29.72a10.23,10.23,0,0,0-2-.12c-1.56,0-4.44.08-4.44,3.64,0,2.52,1.48,3.6,3.28,3.6,2.52,0,3.2-1.4,3.2-1.4Z"/><path class="a" d="M75.6,40.55,75.8,35c-.92,4.24-3.52,5.73-7.08,5.73-3.12,0-5-1-6.08-2.84-1-1.68-1.08-3.52-1.09-8.2V27.83c0-7.24-.21-7.92-.89-9.21l-.36-.68,8.36-1s-.24,3.36-.23,8.49v2.64c0,4.64.16,6.08.69,6.92.36.68,1.08,1.4,2.88,1.4,3,0,3.52-1.76,3.52-1.76v-6.8c0-7.25-.21-7.92-.89-9.21l-.36-.68,8.32-1s-.2,4.4-.2,8.49v4.24c0,6.92.37,8,1,9.21l.36.68Z"/><path class="a" d="M99.17,22.32c-2.92,0-3.6,1.64-3.6,1.64v5.44c0,8.77.45,9,1.09,10.17l.44.72s-1.56-.08-5-.08-4.8.08-4.8.08l.36-.68c.64-1.16,1-1.48,1-10.21v-1.6c0-6.92-.37-8-1-9.2l-.36-.68,8.08-1-.2,6.76c.88-6.12,3.92-6.93,5.72-6.93,2.08,0,2.76.72,2.76.72s-.08,1-.08,3.4c0,2.68.08,3.72.08,3.72A5.23,5.23,0,0,0,99.17,22.32Z"/><path class="a" d="M110.42,40.21c-3.4,0-4.8.08-4.8.08l.36-.68c.68-1.24,1-1.72,1-10.21V27.8c0-6.92-.37-8-1-9.21l-.36-.68,8.6-1s-.36,2.24-.35,10.85V29.4c0,7.4.17,8.61,1,10.21l.36.68S113.82,40.2,110.42,40.21Zm0-25.46c-2.28,0-4.12-.6-4.12-2.88s1.76-3,4.08-3,4.12.6,4.12,2.88S112.77,14.75,110.41,14.75Z"/><path class="a" d="M125.38,29.87c0,3.84,2,6.6,6.29,6.6,5.24,0,6.68-2.21,6.8-2.41,0,3-2.2,6.65-9.16,6.65-4.36,0-10.93-1.79-10.93-11.8,0-7.88,3.92-12.13,10.72-12.13,9.89,0,10.17,8.08,10.17,12.68v.4Zm3.72-9.69c-2.6,0-3.68,1.72-3.72,6.81l7.16-.76C132.54,22.74,132.34,20.18,129.1,20.18Z"/><path class="a" d="M190.9,21.15l-5,19.09s-1.4-.08-4.56-.08-4.6.08-4.6.08l-4.29-19.13a16.57,16.57,0,0,1-.44-2.8c0,.2-.16,1.24-.48,2.84l-4,19.09s-1.56-.08-4.64-.08-4.76.08-4.76.08l-4.81-19.09c-1.44-5.64-2.25-8-3.77-9.48,0,0,1.68.08,5.24.08,3.84,0,5.68-.08,5.68-.08a2.83,2.83,0,0,0-1.28,2.52,45.3,45.3,0,0,0,1.12,6.68l2.89,13.61c.2,1,.36,2.08.4,2.36a16.34,16.34,0,0,1,.44-2.32l4.75-22.86s1.4.08,3.88.08,4-.08,4-.08l5,22.49c.24,1.08.52,2.72.52,2.72s.24-1.56.48-2.72l2.83-13.29a40.23,40.23,0,0,0,1.12-6.68,2.83,2.83,0,0,0-1.28-2.52s1.64.08,4.76.08,4.52-.08,4.52-.08C193.13,13.1,192.33,15.5,190.9,21.15Z"/><path class="a" d="M207.6,40.51l.2-4.8c-1.08,4.36-4.16,4.93-6.64,4.93-5.6,0-7-3.88-7-7,0-7,6-7.37,9.52-7.37a27.94,27.94,0,0,1,3.84.24V25.42a5.16,5.16,0,0,0-.8-3.44c-.64-.72-1.8-1.2-4.08-1.2a7.73,7.73,0,0,0-6.24,2.69s.12-1.08.12-2.8a23.64,23.64,0,0,0-.12-2.72s2.48-1.2,8.2-1.21c5,0,7.17,1.24,8.17,2.52,1.44,1.72,1.48,4,1.49,6.68,0,2.44,0,3.52,0,7.2,0,2.92.24,4.36,1,5.68l.36.68Zm-.13-10.89a10.23,10.23,0,0,0-2-.12c-1.56,0-4.44.08-4.44,3.64,0,2.52,1.48,3.6,3.28,3.6,2.52,0,3.2-1.4,3.2-1.4Z"/><path class="a" d="M236.53,40.13c-3.64,0-5.28.08-5.28.08a2,2,0,0,0,.76-1.56c0-1-.32-1.8-2.12-4.36l-1.36-2-1,1.76c-1.68,2.88-2.08,3.6-2.08,4.64a2,2,0,0,0,.76,1.56s-1.8-.08-4.6-.08c-3.12,0-4.88.08-4.88.08,1.48-1,2.4-2.24,5.16-6.45l3.8-5.73-3.08-4.48c-2.84-4.12-3.65-5.44-5.25-6.44,0,0,1.72.08,5.76.08,3.64,0,5.28-.08,5.28-.08a2,2,0,0,0-.76,1.56c0,1,.36,1.76,2.12,4.4l.64,1,.6-1c1.48-2.48,1.88-3.32,1.88-4.36a2,2,0,0,0-.76-1.56s1.68.08,4.48.08c3.12,0,4.72-.08,4.72-.08-1.48,1-2.4,2.24-5.2,6.45l-3,4.52L237,33.77c2.88,4.16,3.65,5.44,5.25,6.44C242.26,40.21,240.54,40.13,236.53,40.13Z"/><path class="a" d="M276,40.11c-3.4,0-4.8.08-4.8.08l.36-.68c.64-1.16,1-1.44,1-10.17,0-4.68-.16-6.08-.69-7a3.1,3.1,0,0,0-3-1.4c-2.52,0-3.28,1.4-3.52,2,.12,1.24.16,2.76.16,4.92v1.44c0,8.73.37,9,1,10.21l.36.68s-1.4-.08-4.8-.08-4.8.08-4.8.08l.36-.68c.64-1.16,1-1.44,1-10.17,0-4.68-.16-6.08-.64-7a3,3,0,0,0-2.88-1.4c-3,0-3.48,1.8-3.48,1.8v6.52c0,8.69.37,9,1,10.21l.36.68s-1.4-.08-4.8-.08-4.8.08-4.8.08l.36-.68c.64-1.16,1-1.48,1-10.21v-1.6c0-6.92-.37-8-1-9.21l-.36-.68,8.16-1-.2,5.6c.92-4.28,3.48-5.77,7-5.77,3.72,0,6.17,1.52,6.85,5.16,1-3.84,3.6-5.21,7-5.21,3.12,0,5.12,1,6.13,2.92,1,1.68,1.12,3.6,1.13,8.28V29.3c0,8.73.37,9,1,10.21l.36.68S279.44,40.1,276,40.11Z"/><path class="a" d="M297.49,40.45l.2-4.8c-1.08,4.36-4.16,4.93-6.64,4.93-5.6,0-7-3.88-7-7,0-7,6-7.37,9.52-7.37a27.94,27.94,0,0,1,3.84.24V25.36a5.16,5.16,0,0,0-.8-3.44c-.64-.72-1.8-1.2-4.08-1.2a7.73,7.73,0,0,0-6.24,2.69s.12-1.08.12-2.8a23.45,23.45,0,0,0-.12-2.72s2.48-1.2,8.2-1.21c5,0,7.17,1.24,8.17,2.52,1.44,1.72,1.48,4,1.49,6.68,0,2.44,0,3.52,0,7.2,0,2.92.24,4.36,1,5.68l.36.68Zm-.13-10.89a10.32,10.32,0,0,0-2-.12c-1.56,0-4.44.08-4.44,3.64,0,2.52,1.48,3.6,3.29,3.6,2.52,0,3.2-1.4,3.2-1.4Z"/><path class="a" d="M327.67,40.08c-3.44,0-4.84.08-4.84.08l.36-.68c.64-1.16,1-1.44,1-10.17,0-4.68-.12-6.08-.64-7a3,3,0,0,0-2.92-1.4c-3,0-3.48,1.8-3.48,1.8v6.52c0,8.69.37,9,1,10.21l.36.68s-1.4-.08-4.8-.08-4.8.08-4.8.08l.36-.68c.64-1.16,1-1.48,1-10.21v-1.6c0-6.92-.37-8-1-9.2l-.36-.68,8.16-1-.2,5.6c.92-4.28,3.48-5.77,7-5.77,3.08,0,5,1,6.09,2.92,1,1.68,1.12,3.6,1.13,8.29v1.44c0,8.73.37,9,1,10.21l.36.68S331.07,40.07,327.67,40.08Z"/></svg>