<svg id="Layer_1" data-name="Layer 1" xmlns="http://www.w3.org/2000/svg" viewBox="0 0 72 72"><defs><style>.cls-1{fill:#fff;}.cls-2{fill:none;}</style></defs><title>point</title><g id="SVG"><g id="hand"><path class="cls-1" d="M31.83,10.69a24.08,24.08,0,0,0,.85,5.55H31.3a4.13,4.13,0,0,0-4.18,4.08s0,.07,0,.1a19.24,19.24,0,0,0,1.31,5.68H26.76a4.17,4.17,0,0,0-4.35,4q0,.18,0,.37a18.34,18.34,0,0,0,1,5.31h-14q-3.39,0-4.11.57t-.8,2.93V40.4q0,3.3,1.28,4.36t8.92,1.06H45.44q-5.26,5.68-6.88,7.88-4.39,6-1.33,11,1.51,2.49,3.49,1.29a28.84,28.84,0,0,0,5.34-4.8q3.36-3.6,5.59-5.88l13.08-13.2,2.77-.24V16.24L60,7.65a3.72,3.72,0,0,0-2.8-1.27h-21a4.2,4.2,0,0,0-4.37,4Q31.83,10.55,31.83,10.69Z"/><line class="cls-2" x1="38.91" y1="16.34" x2="32.68" y2="16.24"/></g></g></svg>