<svg xmlns="http://www.w3.org/2000/svg" viewBox="0 0 368 70"><defs><style>.cls-1{fill:#fff;}</style></defs><title>title</title><g id="SVG"><g id="about-link"><g id="text"><path class="cls-1" d="M54.24,64.19q0,2.33-4.31,2.33T43.7,63.84A26.91,26.91,0,0,1,41,57.44q-1.56-4.72-2.35-5.65-1.32-1.49-6.77-1.49-11.07,0-14.06,1.54-1.63.83-3.47,6t-2.72,6.28Q9.9,66.21,5.93,66.21t-4-1.85q0-1.85,8-25.84T18.3,13.78Q21.68,6.84,23,5.66t5.27-1.19q3.87,0,5.14,1,3.12,2.42,9.12,20t7,21.77q1,4.2,2.83,10.17A50.74,50.74,0,0,1,54.24,64.19ZM24.71,41.6h6.72q4.17,0,4.17-1.23v-.26q0-5-5.76-20-1.1-2.86-1.49-2.86a14.06,14.06,0,0,0-1.49,3Q20.1,36.11,20.1,40.46,20.1,41.6,24.71,41.6Z"/><path class="cls-1" d="M107.9,49.25q0,17.67-23.6,17.67H70.55q-6.59,0-7.21-2.42Q63,63.31,63,45.87V19.1L63,16V12.86l-.09-3q0-4.44,2.33-5.19,1.63-.53,12.22-.53h6.37q21.36,0,21.36,16.08a14.24,14.24,0,0,1-5,11.21q-2.11,1.85-2.11,2.13t1.47,1.1a23.71,23.71,0,0,1,3.05,2A16.14,16.14,0,0,1,106,41,15.83,15.83,0,0,1,107.9,49.25ZM77.1,29.91h5.71Q94,29.91,94,22V20.6q0-7.51-10.72-7.51H79.91a16.23,16.23,0,0,0-4.66.37q-.83.37-.83,2.57l-.09.92v8.66l.18,1.89Q74.5,29.91,77.1,29.91Zm1.67,27.95h6.15q5.89,0,8.72-2.35a7.91,7.91,0,0,0,2.83-6.44V47.45a8.18,8.18,0,0,0-2.64-6.33,9.27,9.27,0,0,0-6.5-2.42,11.9,11.9,0,0,0-1.23-.09l-2-.09H78.85q-4.31,0-4.31,2.24a9.33,9.33,0,0,0-.09,1.05l-.09.7,0,1.1v9.49l.18,2.15q0,1.63.7,2.11T78.77,57.86Z"/><path class="cls-1" d="M169.6,34v3a44.79,44.79,0,0,1-1.93,13.6,25.78,25.78,0,0,1-5.16,9.65,22.64,22.64,0,0,1-8.28,5.65A27.14,27.14,0,0,1,143.76,68h-1.05q-20.35,0-25.22-18.54A49.43,49.43,0,0,1,116,36.9V34.83a46,46,0,0,1,1.76-12.9,27.06,27.06,0,0,1,4.68-9.62,22.79,22.79,0,0,1,8.06-6,26.12,26.12,0,0,1,11.34-2.44h2.11a25.85,25.85,0,0,1,11.21,2.37,23.08,23.08,0,0,1,7.93,5.84,26.45,26.45,0,0,1,4.72,9.27A42.33,42.33,0,0,1,169.6,34Zm-42.32,1V37q0,10.37,3.38,15.34,4.44,6.46,11.25,6.46H144a12.06,12.06,0,0,0,10.48-5.62q3.85-5.62,3.84-15.64V34.09q0-14.81-8.53-19.6A12.18,12.18,0,0,0,143.67,13h-2.07a12,12,0,0,0-10.52,5.58Q127.28,24.16,127.28,35Z"/><path class="cls-1" d="M193,41.69q0,8.39,3.08,12.48t9.71,4.09q6.64,0,9.62-5.36,2.42-4.31,2.42-16.57l.09-3.12L218,22.35q0-12.44.62-14.63.88-3.16,5.16-3.16t4.68,1.71q.09.4.09,12.17l.09,7.65q0,1.54,0,3l.13,4.53v4.57A80,80,0,0,1,228,51.71q-1.8,9.49-11,13.36a30.75,30.75,0,0,1-12,2.46h-1.67q-12.22,0-18-8.39a17.92,17.92,0,0,1-3-7.27q-.68-4-.68-16t-.35-19.71l-.18-2.77q-.22-3.47-.22-4.17V7.85q0-2.55,3.3-2.55a12.88,12.88,0,0,1,4.9.7q1.6.7,2.22,3.56,1.49,6.86,1.49,24.39l.09,3.08Q193,38.57,193,41.69Z"/><path class="cls-1" d="M276.87,4.47q5.14,0,6.48.64t1.34,3.54q0,2.9-1.71,4T275,13.78q-6.22,0-7.56,2.46t-1.34,17.84l-.31,19.78q0,10-.55,11.54T260.44,67h-2.11q-2.37,0-3-1.23t-.59-6.15l0-1.1q0-1.1,0-2.2l.09-2.15q.31-7.56.31-8.7V43.14l0-3.34V37.56l0-1.1V34.22q0-15-.53-16.92a4.51,4.51,0,0,0-1.47-2.59q-.95-.66-4.55-.66l-6.24.13q-5.27,0-5.27-4.75V8.51q0-2.33,1.49-2.94t7-.62l7.6-.22,1.1,0q1.1,0,2.2,0l1.14,0q1.14,0,2.2,0l5.67-.09Z"/></g><g id="hand"><g id="hand-2" data-name="hand"><path class="cls-1" d="M307.31,39.55a24.08,24.08,0,0,0,5.55-.85v1.38A4.13,4.13,0,0,0,317,44.27,19.24,19.24,0,0,0,322.72,43v1.67A4.17,4.17,0,0,0,327.07,49a18.34,18.34,0,0,0,5.31-1V62q0,3.39.57,4.11t2.93.73H337q3.3,0,4.36-1.28t1.06-8.92V25.95q5.68,5.26,7.88,6.88,5.95,4.39,11,1.33,2.49-1.51,1.29-3.49a28.84,28.84,0,0,0-4.8-5.34q-3.6-3.36-5.88-5.59L338.72,6.65l-.24-2.77H312.86l-8.59,7.52A3.72,3.72,0,0,0,303,14.2v21A4.2,4.2,0,0,0,307.31,39.55Z"/><line class="cls-1" x1="332.38" y1="41.45" x2="332.38" y2="48.03"/><line class="cls-1" x1="322.72" y1="36.93" x2="322.72" y2="42.95"/><line class="cls-1" x1="312.96" y1="32.47" x2="312.86" y2="38.7"/></g></g></g></g></svg>