<svg xmlns="http://www.w3.org/2000/svg" viewBox="0 0 70 365"><defs><style>.cls-1{fill:#fff;}</style></defs><title>title</title><g id="SVG"><g id="about"><g id="hand"><path class="cls-1" d="M31.1,9.31A24.08,24.08,0,0,0,32,14.86H30.57A4.13,4.13,0,0,0,26.39,19a19.24,19.24,0,0,0,1.31,5.68H26a4.17,4.17,0,0,0-4.35,4.35,18.34,18.34,0,0,0,1,5.31h-14q-3.39,0-4.11.57t-.73,2.93V39q0,3.3,1.28,4.36T14,44.44H44.71q-5.26,5.68-6.88,7.88-4.39,5.95-1.33,11Q38,65.81,40,64.61a28.84,28.84,0,0,0,5.34-4.8q3.36-3.6,5.59-5.88L64,40.72l2.77-.24V14.86L59.25,6.27A3.72,3.72,0,0,0,56.45,5h-21A4.2,4.2,0,0,0,31.1,9.31Z"/><line class="cls-1" x1="29.21" y1="34.38" x2="22.63" y2="34.38"/><line class="cls-1" x1="33.73" y1="24.72" x2="27.7" y2="24.72"/><line class="cls-1" x1="38.19" y1="14.96" x2="31.95" y2="14.86"/></g><path class="cls-1" d="M63.37,307q2.33,0,2.33,4.31T63,317.59a26.89,26.89,0,0,1-6.39,2.75Q51.9,321.9,51,322.69q-1.49,1.32-1.49,6.77,0,11.07,1.54,14.06.83,1.63,6,3.47t6.28,2.72q2.07,1.67,2.07,5.65t-1.85,4q-1.85,0-25.84-8T13,343Q6,339.61,4.83,338.25T3.65,333q0-3.87,1-5.14,2.42-3.12,20-9.12t21.78-7q4.2-1,10.17-2.83A50.66,50.66,0,0,1,63.37,307ZM40.78,336.58v-6.72q0-4.17-1.23-4.17h-.26q-5,0-20,5.76-2.86,1.1-2.86,1.49a14.06,14.06,0,0,0,3,1.49q15.78,6.77,20.13,6.77Q40.78,341.19,40.78,336.58Z"/><path class="cls-1" d="M48.43,253.39q17.67,0,17.67,23.6v13.75q0,6.59-2.42,7.21-1.19.31-18.63.31H18.28l-3.12,0H12l-3,.09q-4.44,0-5.19-2.33-.53-1.63-.53-12.22v-6.37q0-21.36,16.08-21.36a14.24,14.24,0,0,1,11.21,5q1.85,2.11,2.13,2.11t1.1-1.47a23.64,23.64,0,0,1,2-3.05,16.14,16.14,0,0,1,4.31-3.45A15.82,15.82,0,0,1,48.43,253.39ZM29.09,284.2v-5.71q0-11.21-7.87-11.21H19.77q-7.51,0-7.51,10.72v3.38a16.17,16.17,0,0,0,.37,4.66q.37.83,2.57.83l.92.09h8.66l1.89-.18Q29.09,286.79,29.09,284.2ZM57,282.53v-6.15q0-5.89-2.35-8.72a7.92,7.92,0,0,0-6.44-2.83H46.62a8.18,8.18,0,0,0-6.33,2.64,9.27,9.27,0,0,0-2.42,6.5,11.92,11.92,0,0,0-.09,1.23l-.09,2v5.27q0,4.31,2.24,4.31a9.33,9.33,0,0,0,1.05.09l.7.09,1.1,0h9.49l2.15-.18q1.63,0,2.11-.7T57,282.53Z"/><path class="cls-1" d="M33.13,191.69h3a44.8,44.8,0,0,1,13.6,1.93,25.81,25.81,0,0,1,9.65,5.16,22.67,22.67,0,0,1,5.65,8.28,27.16,27.16,0,0,1,2.09,10.46v1.05q0,20.35-18.54,25.22a49.42,49.42,0,0,1-12.52,1.49H34a46,46,0,0,1-12.9-1.76,27,27,0,0,1-9.62-4.68,22.78,22.78,0,0,1-6-8.06A26.12,26.12,0,0,1,3,219.46v-2.11A25.85,25.85,0,0,1,5.4,206.15a23.08,23.08,0,0,1,5.84-7.93,26.43,26.43,0,0,1,9.27-4.72A42.33,42.33,0,0,1,33.13,191.69Zm1,42.32h2.07q10.37,0,15.34-3.38Q58,226.19,58,219.38v-2.07a12.05,12.05,0,0,0-5.62-10.48Q46.76,203,36.74,203H33.26q-14.81,0-19.6,8.53a12.19,12.19,0,0,0-1.49,6.11v2.07a12.05,12.05,0,0,0,5.58,10.53Q23.33,234,34.14,234Z"/><path class="cls-1" d="M40.87,168.31q8.4,0,12.48-3.08t4.09-9.71q0-6.64-5.36-9.62-4.31-2.42-16.57-2.42l-3.12-.09-10.85-.13q-12.44,0-14.63-.62-3.16-.88-3.16-5.16t1.71-4.68q.4-.09,12.17-.09l7.65-.09q1.54,0,3,0l4.53-.13H37.4a80,80,0,0,1,13.49.83q9.49,1.8,13.36,11a30.73,30.73,0,0,1,2.46,12v1.67q0,12.22-8.39,18a17.9,17.9,0,0,1-7.27,3q-4,.68-16,.68T15.38,180l-2.77.18q-3.47.22-4.17.22H7q-2.55,0-2.55-3.3a12.9,12.9,0,0,1,.7-4.9q.7-1.6,3.56-2.22,6.86-1.49,24.39-1.49l3.08-.09Q37.75,168.31,40.87,168.31Z"/><path class="cls-1" d="M3.65,84.42q0-5.14.64-6.48T7.82,76.6q2.9,0,4,1.71T13,86.25q0,6.22,2.46,7.56t17.84,1.34L53,95.45q10,0,11.54.55t1.56,4.86V103q0,2.37-1.23,3t-6.15.59l-1.1,0q-1.1,0-2.2,0l-2.15-.09q-7.56-.31-8.7-.31H42.32L39,106H36.74l-1.1,0H33.4q-15,0-16.92.53A4.5,4.5,0,0,0,13.89,108q-.66.94-.66,4.55l.13,6.24q0,5.27-4.75,5.27H7.69q-2.33,0-2.94-1.49t-.62-7l-.22-7.6,0-1.1q0-1.1,0-2.2l0-1.14q0-1.14,0-2.2l-.09-5.67Z"/></g></g></svg>