<svg xmlns="http://www.w3.org/2000/svg" viewBox="0 0 334 70"><defs><style>.cls-1{fill:#fff;}</style></defs><title>title</title><g id="SVG"><g id="work"><path class="cls-1" d="M54.37,30.91q3.73,15.62,4.31,15.62T63.2,30.72q4-15.82,5.58-19.45a12.67,12.67,0,0,1,3.34-4.92,7.56,7.56,0,0,1,4.66-1.3q2.33,0,2.33,3.12,0,1.49-3.82,19a266.09,266.09,0,0,1-8.22,30.23q-2.42,6.94-8.35,6.94A4.61,4.61,0,0,1,55.46,63q-3.16-2.9-7.87-19.09T42.28,27.73q-.26,0-4.2,12.77T32.35,57q-3.08,6.28-6.15,6.28-5.84,0-8.13-6.55L15.47,47.9q-.62-2.15-1.47-5.27t-2.11-7.34q-1.25-4.22-1.82-6.37l-1.58-6q-.79-3.08-2.13-7.8A28.74,28.74,0,0,1,5,8.06q0-2.31,2.9-2.31,5.89,0,8.7,6.81,1.58,3.82,5.71,19t4.48,15.23q.35,0,3.52-10.31t4.86-17.29a54.59,54.59,0,0,1,2.26-8q1.45-2.64,7.08-2.64a4.39,4.39,0,0,1,4.35,2.77Q50.63,15.29,54.37,30.91Z"/><path class="cls-1" d="M139.18,33.13v3a44.79,44.79,0,0,1-1.93,13.6,25.79,25.79,0,0,1-5.16,9.65,22.64,22.64,0,0,1-8.28,5.65,27.14,27.14,0,0,1-10.46,2.09h-1.05q-20.35,0-25.22-18.54a49.43,49.43,0,0,1-1.49-12.52V34a46,46,0,0,1,1.76-12.9A27.06,27.06,0,0,1,92,11.49a22.79,22.79,0,0,1,8.06-6A26.12,26.12,0,0,1,111.41,3h2.11A25.85,25.85,0,0,1,124.72,5.4a23.08,23.08,0,0,1,7.93,5.84,26.46,26.46,0,0,1,4.72,9.27A42.33,42.33,0,0,1,139.18,33.13Zm-42.32,1v2.07q0,10.37,3.38,15.34Q104.68,58,111.5,58h2.07A12.06,12.06,0,0,0,124,52.38q3.85-5.62,3.85-15.64V33.27q0-14.81-8.53-19.6a12.18,12.18,0,0,0-6.11-1.49h-2.07a12.05,12.05,0,0,0-10.52,5.58Q96.86,23.33,96.86,34.14Z"/><path class="cls-1" d="M183.13,39.81A8.16,8.16,0,0,0,184,41.7q.92,1.63,6.11,11.73t5.19,10.94q0,1.8-4.57,1.8t-6.64-2.33q-1.41-1.58-5.45-10t-6.17-10.33q-2.13-1.91-6.79-1.91-3.12,0-3.74,2.39t-.62,10.92q0,8.53-1.19,10t-4.88,1.43H154q-2.64,0-3.27-.81t-.64-4.59V44l0-1.32V35q0-27.33.64-28.89t3.32-2a104.18,104.18,0,0,1,11.69-.4H171q17.18,0,21.31,10.15a20.85,20.85,0,0,1,1.23,7.76A17.51,17.51,0,0,1,191.67,30a18.36,18.36,0,0,1-5.23,6.11Q183.13,38.58,183.13,39.81Zm-18.85-7.43h2.9l.4,0h.75q8,0,11.12-2.53t3.08-7.45v-.83q0-4.57-2.88-6.72t-9-2.15h-1.89l-.35,0q-5.05,0-6,.53t-.94,3.47a10.26,10.26,0,0,0-.09,1.27v3.12l0,1.14v6a14.42,14.42,0,0,1,.13,1.71Q161.46,32.39,164.27,32.39Z"/><path class="cls-1" d="M207.56,5.65a6.42,6.42,0,0,1,4.11-1A5,5,0,0,1,215.8,6.2q1.25,1.58,1.25,7.34,0,12.13,1,14.19.48,1,1.14,1,2.15,0,9.82-10.22t9.51-11.8q2.9-2.5,8.09-2.5,3.12,0,3.12,1.71,0,1.36-8.9,12.94t-8.9,12.33q0,.75,5.36,9.36t7,11.12l2.59,3.91q5.19,8,5.19,8.7,0,2-4.55,2a10.06,10.06,0,0,1-7.23-2.55q-1.45-1.41-6.44-9.27t-6.48-9.76q-3.6-4.57-5.73-4.57T218.11,45q-.57,2-.57,9.25T216.39,64Q215.47,66,211.58,66t-4.64-2.29q-.31-1-.31-13.05V37l0-3.16V26.1l-.26-15.86Q206.33,6.68,207.56,5.65Z"/><g id="hand"><path class="cls-1" d="M273.31,39.55a24.08,24.08,0,0,0,5.55-.85v1.38A4.13,4.13,0,0,0,283,44.27,19.24,19.24,0,0,0,288.72,43v1.67A4.17,4.17,0,0,0,293.07,49a18.34,18.34,0,0,0,5.31-1V62q0,3.39.57,4.11t2.93.73H303q3.3,0,4.36-1.28t1.06-8.92V25.95q5.68,5.26,7.88,6.88,5.95,4.39,11,1.33,2.49-1.51,1.29-3.49a28.84,28.84,0,0,0-4.8-5.34q-3.6-3.36-5.88-5.59L304.72,6.65l-.24-2.77H278.86l-8.59,7.52A3.72,3.72,0,0,0,269,14.2v21A4.2,4.2,0,0,0,273.31,39.55Z"/><line class="cls-1" x1="298.38" y1="41.45" x2="298.38" y2="48.03"/><line class="cls-1" x1="288.72" y1="36.93" x2="288.72" y2="42.95"/><line class="cls-1" x1="278.96" y1="32.47" x2="278.86" y2="38.7"/></g></g></g></svg>