<svg xmlns="http://www.w3.org/2000/svg" viewBox="0 0 70 328"><defs><style>.cls-1{fill:#fff;}</style></defs><title>title</title><g id="SVG"><g id="work-link"><g id="text"><path class="cls-1" d="M30.61,276.31q15.62-3.73,15.62-4.31t-15.82-4.53q-15.82-4-19.45-5.58A12.67,12.67,0,0,1,6,258.56a7.55,7.55,0,0,1-1.3-4.66q0-2.33,3.12-2.33,1.49,0,19,3.82a266.17,266.17,0,0,1,30.23,8.22Q64,266,64,272a4.61,4.61,0,0,1-1.32,3.25q-2.9,3.16-19.09,7.87t-16.19,5.32q0,.26,12.77,4.2t16.46,5.73q6.28,3.08,6.28,6.15,0,5.84-6.55,8.13l-8.79,2.59-5.27,1.47q-3.12.86-7.34,2.11t-6.37,1.82l-6,1.58q-3.08.79-7.8,2.13a28.76,28.76,0,0,1-7,1.34q-2.31,0-2.31-2.9,0-5.89,6.81-8.7,3.82-1.58,19.05-5.71t15.23-4.48q0-.35-10.31-3.52t-17.29-4.86a54.65,54.65,0,0,1-8-2.26q-2.64-1.45-2.64-7.08a4.39,4.39,0,0,1,2.77-4.35Q15,280,30.61,276.31Z"/><path class="cls-1" d="M32.83,191.49h3a44.8,44.8,0,0,1,13.6,1.93,25.81,25.81,0,0,1,9.65,5.16,22.67,22.67,0,0,1,5.65,8.28,27.15,27.15,0,0,1,2.09,10.46v1.05q0,20.35-18.54,25.22a49.42,49.42,0,0,1-12.52,1.49H33.7a46,46,0,0,1-12.9-1.76,27,27,0,0,1-9.62-4.68,22.78,22.78,0,0,1-6-8.06,26.12,26.12,0,0,1-2.44-11.34v-2.11A25.85,25.85,0,0,1,5.1,206,23.08,23.08,0,0,1,10.94,198a26.43,26.43,0,0,1,9.27-4.72A42.33,42.33,0,0,1,32.83,191.49Zm1,42.32H35.9q10.37,0,15.34-3.38Q57.7,226,57.7,219.18v-2.07a12.05,12.05,0,0,0-5.62-10.48q-5.62-3.85-15.64-3.85H33q-14.81,0-19.6,8.53a12.18,12.18,0,0,0-1.49,6.11v2.07A12.05,12.05,0,0,0,17.44,230Q23,233.81,33.84,233.81Z"/><path class="cls-1" d="M39.51,147.55a8.15,8.15,0,0,0,1.89-.92q1.63-.92,11.73-6.11t10.94-5.19q1.8,0,1.8,4.57t-2.33,6.64q-1.58,1.41-10,5.45t-10.33,6.17q-1.91,2.13-1.91,6.79,0,3.12,2.4,3.74t10.92.62q8.53,0,10,1.19T66,175.37v1.27q0,2.64-.81,3.27t-4.59.64H43.72l-1.32,0H34.67q-27.33,0-28.89-.64t-2-3.32a104.17,104.17,0,0,1-.4-11.69v-5.23q0-17.18,10.15-21.31a20.86,20.86,0,0,1,7.76-1.23A17.52,17.52,0,0,1,29.66,139a18.36,18.36,0,0,1,6.11,5.23Q38.27,147.55,39.51,147.55ZM32.08,166.4v-2.9l0-.4v-.75q0-8-2.53-11.12t-7.45-3.08h-.83q-4.57,0-6.72,2.88t-2.15,9v1.89l0,.35q0,5.05.53,6t3.47.95a10.37,10.37,0,0,0,1.27.09h3.12l1.14,0h6a14.42,14.42,0,0,1,1.71-.13Q32.08,169.21,32.08,166.4Z"/><path class="cls-1" d="M5.34,123.12a6.42,6.42,0,0,1-1-4.11,5,5,0,0,1,1.58-4.13q1.58-1.25,7.34-1.25,12.13,0,14.19-1,1-.48,1-1.14,0-2.15-10.22-9.82T6.37,92.13q-2.5-2.9-2.5-8.09,0-3.12,1.71-3.12,1.36,0,12.94,8.9t12.33,8.9q.75,0,9.36-5.36t11.12-7l3.91-2.59q8-5.19,8.7-5.19,2,0,2,4.55a10.06,10.06,0,0,1-2.55,7.23Q62,91.78,54.14,96.77t-9.76,6.48q-4.57,3.6-4.57,5.73t4.92,3.58q2,.57,9.25.57t9.73,1.14q1.93.92,1.93,4.81t-2.29,4.64q-1,.31-13.05.31H36.65l-3.16,0H25.79l-15.86.26Q6.37,124.35,5.34,123.12Z"/></g><g id="hand"><path class="cls-1" d="M9.58,39.17a24.08,24.08,0,0,0,5.55-.85V39.7a4.13,4.13,0,0,0,4.18,4.18A19.24,19.24,0,0,0,25,42.57v1.67a4.17,4.17,0,0,0,4.35,4.35,18.34,18.34,0,0,0,5.31-1v14q0,3.39.57,4.11t2.93.73h1.14q3.3,0,4.36-1.28t1.06-8.92V25.56q5.68,5.26,7.88,6.88,5.95,4.39,11,1.33,2.49-1.51,1.29-3.49a28.84,28.84,0,0,0-4.8-5.34q-3.6-3.36-5.88-5.59L41,6.27,40.76,3.5H15.13L6.54,11a3.72,3.72,0,0,0-1.27,2.8v21A4.2,4.2,0,0,0,9.58,39.17Z"/><line class="cls-1" x1="34.65" y1="41.07" x2="34.65" y2="47.64"/><line class="cls-1" x1="24.99" y1="36.55" x2="24.99" y2="42.57"/><line class="cls-1" x1="15.24" y1="32.09" x2="15.13" y2="38.32"/></g></g></g></svg>