<svg xmlns="http://www.w3.org/2000/svg" viewBox="0 0 70 70"><defs><style>.cls-1{fill:#fff;}</style></defs><title>title</title><g id="SVG"><path class="cls-1" d="M63.28,55q-1.1-1.1-3.31-3.12l-2.18-2-1.37-1.37-1.34-1.4L51.67,43.7l-1.4-1.34-2.05-2.05-4.29-4.1L42.68,35c1-.86,2.1-1.81,3.19-2.9Q60.82,17.11,62.59,14,64,11.64,60.95,8.6T57,5.58a3.21,3.21,0,0,0-2,1.13q-1.1,1.1-3.12,3.31l-2,2.18-1.37,1.37-1.4,1.34L43.7,18.33l-1.34,1.4-2.05,2.05-4.1,4.29L35.08,27.2c-1-1-2-2-3-3.07Q17.11,9.18,14,7.41,11.65,6,8.6,9.05T5.58,13a3.22,3.22,0,0,0,1.13,2q1.1,1.1,3.31,3.12l2.18,2,1.37,1.37,1.34,1.4,3.42,3.42,1.4,1.34,2.05,2.05,4.29,4.1,1.13,1.13c-1,1-2,2-3.07,3Q9.18,52.89,7.41,56,6,58.36,9.05,61.4t3.95,3a3.21,3.21,0,0,0,2-1.13q1.1-1.1,3.12-3.31l2-2.18,1.37-1.37,1.4-1.34,3.42-3.42,1.34-1.4,2.05-2.05,4.1-4.29L35,42.68c.86,1,1.81,2.1,2.9,3.19Q52.89,60.82,56,62.59q2.39,1.4,5.44-1.65t3-3.95A3.21,3.21,0,0,0,63.28,55Z"/></g></svg>