<svg xmlns="http://www.w3.org/2000/svg" viewBox="0 0 710 70"><defs><style>.cls-1{fill:#fff;}</style></defs><title>title</title><g id="SVG"><g id="home"><path class="cls-1" d="M5,6.7a3.22,3.22,0,0,1,.62-2.22q.62-.66,4.92-.66t5,2.68q.92,3.43.92,24.57T18,55q.88,1.54,3.69,1.89t11.38.35q8.57,0,9.58.53,1.8.92,1.8,4.44v1a3.92,3.92,0,0,1-.66,2.64q-.66.7-3.56.7H34.2l-1,0h-3l-5.1-.09q-12.88,0-15.21-.33a4.45,4.45,0,0,1-3.41-2.13q-1.08-1.8-1.08-30.28l-.13-5.93v-2.9l0-1.93V18.06l0-1.93V14.19l-.13-2.94Q5,8.26,5,6.7Z"/><path class="cls-1" d="M101.83,63.37q0,2.33-4.31,2.33T91.28,63a26.89,26.89,0,0,1-2.75-6.39Q87,51.9,86.19,51q-1.32-1.49-6.77-1.49-11.07,0-14.06,1.54-1.63.83-3.47,6t-2.72,6.28q-1.67,2.07-5.65,2.07t-4-1.85q0-1.85,8-25.84T65.88,13Q69.27,6,70.63,4.83T75.9,3.65q3.87,0,5.14,1,3.12,2.42,9.12,20t7,21.78q1,4.2,2.83,10.17A50.74,50.74,0,0,1,101.83,63.37ZM72.3,40.78H79q4.17,0,4.17-1.23v-.26q0-5-5.76-20-1.1-2.86-1.49-2.86a14.06,14.06,0,0,0-1.49,3q-6.77,15.78-6.77,20.13Q67.69,40.78,72.3,40.78Z"/><path class="cls-1" d="M122.22,40.87q0,8.4,3.08,12.48T135,57.43q6.64,0,9.62-5.36,2.42-4.31,2.42-16.57l.09-3.12.13-10.85q0-12.44.62-14.63.88-3.16,5.16-3.16t4.68,1.71q.09.4.09,12.17l.09,7.65q0,1.54,0,3l.13,4.53V37.4a80,80,0,0,1-.83,13.49q-1.8,9.49-11,13.36a30.73,30.73,0,0,1-12,2.46h-1.67q-12.22,0-18-8.39a17.92,17.92,0,0,1-3-7.27q-.68-4-.68-16t-.35-19.71l-.18-2.77q-.22-3.47-.22-4.17V7q0-2.55,3.3-2.55a12.9,12.9,0,0,1,4.9.7q1.6.7,2.22,3.56,1.49,6.86,1.49,24.39l.09,3.08Q122.22,37.75,122.22,40.87Z"/><path class="cls-1" d="M203.34,39.81a8.14,8.14,0,0,0,.92,1.89q.92,1.63,6.11,11.73t5.19,10.94q0,1.8-4.57,1.8t-6.64-2.33q-1.41-1.58-5.45-10t-6.17-10.33q-2.13-1.91-6.79-1.91-3.12,0-3.74,2.4t-.62,10.92q0,8.53-1.19,10t-4.88,1.43h-1.27q-2.64,0-3.27-.81t-.64-4.59V44l0-1.32V35q0-27.33.64-28.89t3.32-2A104.18,104.18,0,0,1,186,3.73h5.23q17.18,0,21.31,10.15a20.84,20.84,0,0,1,1.23,7.76A17.51,17.51,0,0,1,211.89,30a18.37,18.37,0,0,1-5.23,6.11Q203.34,38.58,203.34,39.81Zm-18.85-7.43h2.9l.4,0h.75q8,0,11.12-2.53t3.08-7.45v-.83q0-4.57-2.88-6.72t-9-2.15H189l-.35,0q-5.05,0-6,.53t-.95,3.47a10.37,10.37,0,0,0-.09,1.27v3.12l0,1.14v6a14.42,14.42,0,0,1,.13,1.71Q181.68,32.39,184.49,32.39Z"/><path class="cls-1" d="M235.6,66.27h-2.42q-3.74,0-5.14-1.21t-1.41-5.56a26.2,26.2,0,0,1,1-5.08,27.38,27.38,0,0,0,1-6.92l.13-4.83V33.62q0-10.46-.13-12.72a25.46,25.46,0,0,0-1.12-5.58,19.28,19.28,0,0,1-1-4.86V9.71q0-3.52,1.47-4.72t6.22-1.21h2.42q2.81,0,3.87,1.34a6,6,0,0,1,1.05,3.8,26.26,26.26,0,0,1-.86,6,29.81,29.81,0,0,0-.86,7.05V33.7l0,2.42q0,14.5.88,18.22a26.9,26.9,0,0,1,.88,5.73v.75q0,3.69-1.43,4.57A9.31,9.31,0,0,1,235.6,66.27Z"/><path class="cls-1" d="M293.61,8.48q0,5.14-7.38,5.14l-2.59-.09-2.68.09h-4.22q-6.5,0-7.82,1.1-2,1.71-2,10.42A3.19,3.19,0,0,0,269,28.5q2.15.77,10.26.77t9,.75q.9.75.9,3.91t-2.07,3.82q-1.05.35-9.21.35t-10.06,1.47Q266,41,266,47.81t2.22,8q2.22,1.28,12,1.27t11.89.92q2.13.92,2.13,4.13,0,2.73-3.65,3.34-4.92.83-16.66.83h-4.66q-9.45,0-11.69-1.27-2.72-1.54-2.72-10.37V46.89q0-7.6.57-15.6t.57-15.89q0-7.89,1.67-9.38,2.2-2,10.81-2h8.88l1.45,0,5.76,0q5.14,0,7.12.88A3.5,3.5,0,0,1,293.61,8.48Z"/><path class="cls-1" d="M378.25,30.91q3.74,15.62,4.31,15.62t4.53-15.82q4-15.82,5.58-19.45A12.68,12.68,0,0,1,396,6.35a7.55,7.55,0,0,1,4.66-1.3q2.33,0,2.33,3.12,0,1.49-3.82,19a265.93,265.93,0,0,1-8.22,30.23q-2.42,6.94-8.35,6.94A4.61,4.61,0,0,1,379.35,63q-3.16-2.9-7.87-19.09t-5.32-16.19q-.26,0-4.2,12.77T356.23,57q-3.08,6.29-6.15,6.28-5.84,0-8.13-6.55l-2.59-8.79q-.62-2.15-1.47-5.27t-2.11-7.34q-1.25-4.22-1.82-6.37l-1.58-6q-.79-3.07-2.13-7.8a28.76,28.76,0,0,1-1.34-7q0-2.31,2.9-2.31,5.89,0,8.7,6.81,1.58,3.82,5.71,19.05t4.48,15.23q.35,0,3.52-10.3t4.86-17.29a54.67,54.67,0,0,1,2.26-8q1.45-2.64,7.08-2.64a4.39,4.39,0,0,1,4.35,2.77Q374.51,15.29,378.25,30.91Z"/><path class="cls-1" d="M458.36,63.37q0,2.33-4.31,2.33T447.81,63a26.89,26.89,0,0,1-2.75-6.39Q443.5,51.9,442.71,51q-1.32-1.49-6.77-1.49-11.07,0-14.06,1.54-1.63.83-3.47,6t-2.72,6.28Q414,65.39,410,65.39t-4-1.85q0-1.85,8-25.84T422.41,13Q425.8,6,427.16,4.83t5.27-1.19q3.87,0,5.14,1,3.12,2.42,9.12,20t7,21.78q1,4.2,2.83,10.17A50.66,50.66,0,0,1,458.36,63.37ZM428.83,40.78h6.72q4.17,0,4.17-1.23v-.26q0-5-5.76-20-1.1-2.86-1.49-2.86a14.06,14.06,0,0,0-1.49,3q-6.77,15.78-6.77,20.13Q424.21,40.78,428.83,40.78Z"/><path class="cls-1" d="M509.31,4.13q4.55,0,4.55.88,0,1.54-8.17,14.35t-8.17,15q0,2.2,12.88,21.71a77,77,0,0,1,4.53,7.25v.92q0,1.67-5.84,1.67a7.84,7.84,0,0,1-5.8-2.11q-2.11-2.11-8-11t-6-8.92q-.18,0-5.82,8.86t-6.09,9.38q-3,3.87-6.64,3.87-5.8,0-5.8-2.37,0-.83,8.37-13.73t8.37-16.24q0-1.49-7.93-13.86T465.83,6q0-1.36,5.63-1.36,4.26,0,7.73,4,1.1,1.28,5.89,8.66t5.19,7.38,5.54-8.31q5.45-8.31,6.2-9.18A9.31,9.31,0,0,1,509.31,4.13Z"/><path class="cls-1" d="M531.92,5.32q4.75,0,8.31,5.05,2.33,3.3,7.69,14.41L554,37.84l.88,1.41q.66,0,6.94-13.75t7.47-15.64q2.59-4.13,8.17-4.13a6.66,6.66,0,0,1,2.86,1.23A6.9,6.9,0,0,1,583.19,11q.86,2.86.86,11.56V33.53l-.13,6.5,0,4.26v4.26l0,2.11v4.17l.13,6a5,5,0,0,1-1,3.14,3.47,3.47,0,0,1-2.94,1.3,5,5,0,0,1-3.43-1.3,7.56,7.56,0,0,1-2.15-3.23q-.68-1.93-.68-13.8l-.09-4.35q0-2.2,0-4.35,0-12.48-1-12.48t-6.57,12.72Q560.58,51.2,559.52,53a5.1,5.1,0,0,1-4.61,2.72,5.61,5.61,0,0,1-4.66-2.11q-.83-1.1-6.7-14.28T536.67,26.1q-1,0-2,13-.35,4.92-.48,10.66a79.45,79.45,0,0,1-.48,8.22,10,10,0,0,1-1.65,4.35,3.83,3.83,0,0,1-3.23,1.87,4.6,4.6,0,0,1-2.68-.57q-1.41-1.05-1.41-4.31l1.49-40,0-2.11L526.08,13a9.63,9.63,0,0,1,1.1-5A5.23,5.23,0,0,1,531.92,5.32Z"/><path class="cls-1" d="M646.27,63.37q0,2.33-4.31,2.33T635.72,63A26.89,26.89,0,0,1,633,56.62q-1.56-4.72-2.35-5.65-1.32-1.49-6.77-1.49-11.07,0-14.06,1.54-1.63.83-3.47,6t-2.72,6.28q-1.67,2.07-5.65,2.07t-4-1.85q0-1.85,8-25.84T610.32,13q3.38-6.94,4.75-8.13t5.27-1.19q3.87,0,5.14,1,3.12,2.42,9.12,20t7,21.78q1,4.2,2.83,10.17A50.66,50.66,0,0,1,646.27,63.37ZM616.74,40.78h6.72q4.17,0,4.17-1.23v-.26q0-5-5.76-20-1.1-2.86-1.49-2.86a14.06,14.06,0,0,0-1.49,3q-6.77,15.78-6.77,20.13Q612.12,40.78,616.74,40.78Z"/><path class="cls-1" d="M665.91,48.05q0,12.81-1.25,14.9T659.85,65a4.27,4.27,0,0,1-2.59-.64,3.12,3.12,0,0,1-.83-2.57V60.2l.31-10.33q.09-2.37.09-3.6l0-3.65V30.28l0-1.76V19.73q0-1.85-.18-5.27l-.26-5.05q0-3.12.94-3.78A7.06,7.06,0,0,1,661.1,5a9.41,9.41,0,0,1,4.75,1.14,14.81,14.81,0,0,1,3.93,3.47Q675.89,17,685,31.75t9.43,14.79q.33,0,.33-18t1.16-21.23q1.16-3.19,5.65-3.19a4,4,0,0,1,2.79.81q.86.81.86,4.37V12.7q0,1.76-.24,8.13t-.24,22.7q0,16.33-.62,19.58a2.64,2.64,0,0,1-2.9,2.37h-1.58q-4.75,0-8-4.39-1.45-1.93-5.58-8.53l-2.77-4.48q-1.85-3-3.78-6-11.91-18.41-12.79-18.41L666.53,25Q665.91,35.24,665.91,48.05Z"/></g></g></svg>